<?xml version="1.0" standalone="no"?>
<!DOCTYPE svg PUBLIC "-//W3C//DTD SVG 20010904//EN"
 "http://www.w3.org/TR/2001/REC-SVG-20010904/DTD/svg10.dtd">
<svg version="1.0" xmlns="http://www.w3.org/2000/svg"
 width="548.000000pt" height="548.000000pt" viewBox="0 0 548.000000 548.000000"
 preserveAspectRatio="xMidYMid meet">
<metadata>
Created by potrace 1.11, written by Peter Selinger 2001-2013
</metadata>
<g transform="translate(0.000000,548.000000) scale(0.100000,-0.100000)"
fill="#000000" stroke="none">
<path d="M2545 5463 c-16 -2 -97 -13 -180 -24 -681 -95 -1287 -434 -1731 -969
-332 -400 -530 -859 -605 -1400 -18 -125 -18 -535 0 -660 61 -441 206 -829
440 -1182 498 -749 1285 -1183 2221 -1225 161 -7 533 28 595 56 11 5 63 19
115 32 449 105 913 364 1246 694 255 253 493 609 623 930 17 44 36 89 41 100
39 84 115 405 141 595 18 125 18 535 0 660 -34 249 -95 481 -181 690 -28 69
-64 157 -79 195 -41 107 -227 410 -264 432 -8 4 -49 50 -92 102 -451 544
-1142 904 -1860 971 -104 9 -364 11 -430 3z"/>
</g>
</svg>
