<?xml version="1.0" standalone="no"?>
<!DOCTYPE svg PUBLIC "-//W3C//DTD SVG 20010904//EN"
 "http://www.w3.org/TR/2001/REC-SVG-20010904/DTD/svg10.dtd">
<svg version="1.0" xmlns="http://www.w3.org/2000/svg"
 width="512.000000pt" height="512.000000pt" viewBox="0 0 512.000000 512.000000"
 preserveAspectRatio="xMidYMid meet">
<metadata>
Created by potrace 1.11, written by Peter Selinger 2001-2013
</metadata>
<g transform="translate(0.000000,512.000000) scale(0.100000,-0.100000)"
fill="#000000" stroke="none">
<path d="M2375 5113 c-68 -7 -230 -27 -235 -28 -3 -1 -25 -5 -50 -9 -120 -21
-424 -108 -444 -127 -6 -5 -16 -9 -24 -9 -19 0 -242 -106 -338 -161 -211 -121
-378 -250 -554 -429 -129 -130 -171 -181 -317 -386 -48 -65 -149 -255 -217
-404 -50 -111 -121 -338 -150 -482 -38 -184 -46 -271 -46 -508 0 -280 12 -395
66 -620 57 -235 185 -540 311 -737 63 -100 185 -265 226 -307 22 -23 51 -56
65 -74 26 -34 92 -102 158 -163 323 -294 779 -526 1209 -614 198 -40 335 -53
560 -50 121 2 231 6 244 9 13 3 47 8 75 11 52 5 59 6 111 18 17 4 41 8 55 11
107 18 391 107 490 153 206 96 285 139 429 235 73 49 172 124 236 178 58 49
232 226 286 290 30 36 57 67 60 70 3 3 37 50 76 105 141 200 246 404 327 632
24 68 79 262 90 318 4 17 9 41 11 55 28 142 37 281 32 525 -3 143 -8 276 -11
295 -4 19 -14 73 -22 120 -67 361 -217 711 -433 1015 -118 165 -275 336 -421
457 -41 35 -77 65 -80 68 -3 4 -36 28 -75 55 -38 27 -71 53 -73 57 -2 5 -7 8
-12 8 -4 0 -47 25 -96 55 -278 175 -623 297 -994 352 -95 14 -449 25 -525 16z
m459 -259 c120 -15 168 -21 206 -29 14 -3 35 -7 48 -10 142 -27 516 -180 664
-273 175 -109 147 -89 273 -193 229 -189 400 -387 538 -624 117 -201 247 -534
271 -690 7 -46 13 -78 22 -120 10 -46 14 -603 5 -665 -5 -30 -12 -75 -16 -100
-45 -308 -243 -747 -455 -1011 -158 -196 -353 -375 -553 -506 -130 -84 -420
-233 -456 -233 -7 0 -25 -7 -41 -15 -40 -21 -284 -91 -345 -99 -84 -12 -98
-14 -165 -22 -128 -17 -529 -9 -625 11 -11 2 -36 7 -55 9 -321 46 -757 243
-1044 474 -111 89 -152 129 -269 262 -138 156 -163 189 -239 310 -171 274
-293 595 -334 880 -11 72 -14 610 -4 660 5 25 11 65 14 90 21 182 126 476 251
704 33 59 64 116 70 127 5 10 13 19 17 19 5 0 8 7 8 15 0 8 5 15 10 15 6 0 10
5 10 11 0 9 43 72 60 89 3 3 18 23 34 44 125 167 386 403 578 522 321 198 645
314 978 349 36 4 66 8 68 9 9 9 387 1 476 -10z"/>
</g>
</svg>
